<svg width="1700" height="420" viewBox="0 0 1700 420" fill="none" xmlns="http://www.w3.org/2000/svg">
<path d="M392 168.375H420.25V223C420.25 228.417 419.396 233.542 417.688 238.375C416.021 243.167 413.375 247.375 409.75 251C406.167 254.583 402.396 257.104 398.438 258.562C392.938 260.604 386.333 261.625 378.625 261.625C374.167 261.625 369.292 261.312 364 260.688C358.75 260.062 354.354 258.833 350.812 257C347.271 255.125 344.021 252.479 341.062 249.062C338.146 245.646 336.146 242.125 335.062 238.5C333.312 232.667 332.438 227.5 332.438 223V168.375H360.688V224.312C360.688 229.312 362.062 233.229 364.812 236.062C367.604 238.854 371.458 240.25 376.375 240.25C381.25 240.25 385.062 238.875 387.812 236.125C390.604 233.333 392 229.396 392 224.312V168.375ZM464.788 168.375H491.225L525.725 219.062V168.375H552.413V260H525.725L491.413 209.688V260H464.788V168.375ZM597.95 168.375H626.325V260H597.95V168.375ZM665.862 168.375H751.925V191H723.05V260H694.737V191H665.862V168.375ZM790.337 168.375H866.212V187.938H818.712V202.5H862.775V221.188H818.712V239.25H867.587V260H790.337V168.375ZM908.875 168.375H950.938C959.229 168.375 965.917 169.5 971 171.75C976.125 174 980.354 177.229 983.688 181.438C987.021 185.646 989.438 190.542 990.938 196.125C992.438 201.708 993.188 207.625 993.188 213.875C993.188 223.667 992.062 231.271 989.812 236.688C987.604 242.062 984.521 246.583 980.562 250.25C976.604 253.875 972.354 256.292 967.812 257.5C961.604 259.167 955.979 260 950.938 260H908.875V168.375ZM937.188 189.125V239.188H944.125C950.042 239.188 954.25 238.542 956.75 237.25C959.25 235.917 961.208 233.625 962.625 230.375C964.042 227.083 964.75 221.771 964.75 214.438C964.75 204.729 963.167 198.083 960 194.5C956.833 190.917 951.583 189.125 944.25 189.125H937.188ZM1034.85 168.375H1063.22V260H1034.85V168.375ZM1109.39 168.375H1135.83L1170.33 219.062V168.375H1197.01V260H1170.33L1136.01 209.688V260H1109.39V168.375ZM1234.99 168.375H1321.05V191H1292.17V260H1263.86V191H1234.99V168.375ZM1407.15 244.875H1374.9L1370.46 260H1341.53L1375.96 168.375H1406.84L1441.28 260H1411.65L1407.15 244.875ZM1401.21 225.062L1391.09 192.125L1381.03 225.062H1401.21ZM1476 168.375H1504.31V237.438H1548.5V260H1476V168.375ZM1587.1 168.375H1615.41V203L1645.1 168.375H1682.72L1649.35 202.938L1684.22 260H1649.35L1630.04 222.312L1615.41 237.625V260H1587.1V168.375Z" fill="black"/>
<mask id="mask0_520_404" style="mask-type:alpha" maskUnits="userSpaceOnUse" x="15" y="68" width="283" height="283">
<circle cx="156.5" cy="209.5" r="141.5" fill="black"/>
</mask>
<g mask="url(#mask0_520_404)">
<path d="M290.821 -171.617L-145.167 264.37L84.3004 493.837L520.287 57.85L290.821 -171.617Z" fill="white"/>
<path d="M290.821 -171.617L-145.167 264.37L-127.515 282.021L308.472 -153.966L290.821 -171.617Z" fill="#BB133E"/>
<path d="M326.124 -136.314L-109.863 299.673L-92.2115 317.324L343.776 -118.663L326.124 -136.314Z" fill="#BB133E"/>
<path d="M361.427 -101.012L-74.5601 334.975L-56.9088 352.626L379.078 -83.3611L361.427 -101.012Z" fill="#BB133E"/>
<path d="M396.73 -65.7097L-39.2568 370.277L-21.6055 387.929L414.381 -48.0584L396.73 -65.7097Z" fill="#BB133E"/>
<path d="M432.033 -30.407L-3.9541 405.58L13.6972 423.231L449.684 -12.7557L432.033 -30.407Z" fill="#BB133E"/>
<path d="M467.337 4.89675L31.3496 440.884L49.0009 458.535L484.988 22.5481L467.337 4.89675Z" fill="#BB133E"/>
<path d="M502.639 40.1995L66.6523 476.187L84.3036 493.838L520.291 57.8508L502.639 40.1995Z" fill="#BB133E"/>
<path d="M33.1643 86.7478L-141.23 261.143L-18.0244 384.349L156.37 209.954L33.1643 86.7478Z" fill="#002664"/>
</g>
<path d="M133.336 208.822L130.963 223.669L124.156 210.263L133.336 208.822Z" fill="white"/>
<path d="M130.847 213.685L115.995 216.017L126.64 205.4L130.847 213.685Z" fill="white"/>
<path d="M125.461 212.823L118.653 199.418L132.04 206.262L125.461 212.823Z" fill="white"/>
<path d="M124.615 207.428L135.261 196.811L132.889 211.657L124.615 207.428Z" fill="white"/>
<path d="M129.481 204.954L142.868 211.798L128.015 214.129L129.481 204.954Z" fill="white"/>
<path d="M62.9721 278.992L60.5997 293.839L53.7926 280.433L62.9721 278.992Z" fill="white"/>
<path d="M60.4836 283.854L45.6309 286.186L56.2766 275.569L60.4836 283.854Z" fill="white"/>
<path d="M55.0973 282.992L48.2902 269.587L61.6767 276.431L55.0973 282.992Z" fill="white"/>
<path d="M54.2512 277.597L64.8969 266.98L62.5245 281.826L54.2512 277.597Z" fill="white"/>
<path d="M59.1172 275.123L72.5037 281.967L57.651 284.298L59.1172 275.123Z" fill="white"/>
<path d="M109.926 232.168L107.553 247.014L100.746 233.609L109.926 232.168Z" fill="white"/>
<path d="M107.437 237.031L92.5845 239.362L103.23 228.746L107.437 237.031Z" fill="white"/>
<path d="M102.05 236.169L95.2433 222.763L108.63 229.607L102.05 236.169Z" fill="white"/>
<path d="M101.205 230.773L111.851 220.157L109.479 235.003L101.205 230.773Z" fill="white"/>
<path d="M106.071 228.299L119.458 235.143L104.605 237.475L106.071 228.299Z" fill="white"/>
<path d="M86.4492 255.581L84.0768 270.427L77.2697 257.022L86.4492 255.581Z" fill="white"/>
<path d="M83.9606 260.444L69.1079 262.776L79.7536 252.159L83.9606 260.444Z" fill="white"/>
<path d="M78.5743 259.581L71.7672 246.175L85.1537 253.019L78.5743 259.581Z" fill="white"/>
<path d="M77.7283 254.185L88.374 243.569L86.0016 258.415L77.7283 254.185Z" fill="white"/>
<path d="M82.5943 251.713L95.9808 258.557L81.1281 260.889L82.5943 251.713Z" fill="white"/>
<path d="M109.708 184.726L107.336 199.572L100.528 186.167L109.708 184.726Z" fill="white"/>
<path d="M107.219 189.589L92.3667 191.92L103.012 181.304L107.219 189.589Z" fill="white"/>
<path d="M101.833 188.726L95.0255 175.321L108.412 182.165L101.833 188.726Z" fill="white"/>
<path d="M100.987 183.331L111.633 172.715L109.26 187.561L100.987 183.331Z" fill="white"/>
<path d="M105.853 180.857L119.24 187.701L104.387 190.032L105.853 180.857Z" fill="white"/>
<path d="M86.4203 161.926L84.048 176.772L77.2409 163.367L86.4203 161.926Z" fill="white"/>
<path d="M83.9318 166.789L69.0791 169.12L79.7248 158.504L83.9318 166.789Z" fill="white"/>
<path d="M78.5455 165.925L71.7384 152.52L85.1249 159.364L78.5455 165.925Z" fill="white"/>
<path d="M77.7004 160.53L88.3461 149.914L85.9737 164.76L77.7004 160.53Z" fill="white"/>
<path d="M82.5665 158.058L95.9529 164.902L81.1002 167.234L82.5665 158.058Z" fill="white"/>
<path d="M62.9716 138.477L60.5992 153.323L53.7921 139.918L62.9716 138.477Z" fill="white"/>
<path d="M60.4831 143.34L45.6304 145.671L56.2761 135.055L60.4831 143.34Z" fill="white"/>
<path d="M55.0968 142.476L48.2897 129.071L61.6762 135.915L55.0968 142.476Z" fill="white"/>
<path d="M54.2507 137.081L64.8964 126.465L62.524 141.311L54.2507 137.081Z" fill="white"/>
<path d="M59.1177 134.609L72.5042 141.453L57.6515 143.784L59.1177 134.609Z" fill="white"/>
<path d="M51.5077 208.822L49.1354 223.669L42.3283 210.263L51.5077 208.822Z" fill="white"/>
<path d="M49.0192 213.685L34.1665 216.017L44.8122 205.4L49.0192 213.685Z" fill="white"/>
<path d="M43.6324 212.823L36.8253 199.418L50.2118 206.262L43.6324 212.823Z" fill="white"/>
<path d="M42.7869 207.428L53.4325 196.811L51.0602 211.657L42.7869 207.428Z" fill="white"/>
<path d="M47.6529 204.954L61.0394 211.798L46.1867 214.129L47.6529 204.954Z" fill="white"/>
<path d="M93.0678 208.822L90.6954 223.668L83.8883 210.262L93.0678 208.822Z" fill="white"/>
<path d="M90.5793 213.684L75.7266 216.016L86.3723 205.399L90.5793 213.684Z" fill="white"/>
<path d="M85.193 212.821L78.3859 199.416L91.7724 206.26L85.193 212.821Z" fill="white"/>
<path d="M84.3469 207.426L94.9926 196.809L92.6202 211.655L84.3469 207.426Z" fill="white"/>
<path d="M89.2139 204.954L102.6 211.798L87.7477 214.129L89.2139 204.954Z" fill="white"/>
<path d="M69.6581 232.169L67.2858 247.015L60.4787 233.61L69.6581 232.169Z" fill="white"/>
<path d="M67.1696 237.032L52.3169 239.363L62.9626 228.747L67.1696 237.032Z" fill="white"/>
<path d="M61.7828 236.17L54.9757 222.764L68.3622 229.608L61.7828 236.17Z" fill="white"/>
<path d="M60.9377 230.774L71.5834 220.158L69.211 235.004L60.9377 230.774Z" fill="white"/>
<path d="M65.8038 228.3L79.1902 235.144L64.3375 237.476L65.8038 228.3Z" fill="white"/>
<path d="M46.1806 255.58L43.8082 270.427L37.0011 257.021L46.1806 255.58Z" fill="white"/>
<path d="M43.6921 260.443L28.8394 262.775L39.4851 252.158L43.6921 260.443Z" fill="white"/>
<path d="M38.3058 259.581L31.4987 246.175L44.8852 253.019L38.3058 259.581Z" fill="white"/>
<path d="M37.4597 254.185L48.1054 243.569L45.733 258.415L37.4597 254.185Z" fill="white"/>
<path d="M42.3257 251.711L55.7122 258.556L40.8595 260.887L42.3257 251.711Z" fill="white"/>
<path d="M69.4399 184.728L67.0675 199.574L60.2604 186.169L69.4399 184.728Z" fill="white"/>
<path d="M66.9513 189.59L52.0986 191.921L62.7443 181.305L66.9513 189.59Z" fill="white"/>
<path d="M61.5641 188.727L54.757 175.322L68.1435 182.166L61.5641 188.727Z" fill="white"/>
<path d="M60.719 183.332L71.3647 172.716L68.9923 187.562L60.719 183.332Z" fill="white"/>
<path d="M65.585 180.858L78.9715 187.702L64.1188 190.033L65.585 180.858Z" fill="white"/>
<path d="M46.1533 161.926L43.7809 176.772L36.9738 163.367L46.1533 161.926Z" fill="white"/>
<path d="M43.6647 166.79L28.812 169.121L39.4577 158.505L43.6647 166.79Z" fill="white"/>
<path d="M38.2774 165.925L31.4704 152.52L44.8568 159.364L38.2774 165.925Z" fill="white"/>
<path d="M37.4324 160.531L48.0781 149.915L45.7057 164.761L37.4324 160.531Z" fill="white"/>
<path d="M42.2989 158.058L55.6853 164.902L40.8327 167.234L42.2989 158.058Z" fill="white"/>
<path d="M392 168.375H420.25V223C420.25 228.417 419.396 233.542 417.688 238.375C416.021 243.167 413.375 247.375 409.75 251C406.167 254.583 402.396 257.104 398.438 258.562C392.938 260.604 386.333 261.625 378.625 261.625C374.167 261.625 369.292 261.312 364 260.688C358.75 260.062 354.354 258.833 350.812 257C347.271 255.125 344.021 252.479 341.062 249.062C338.146 245.646 336.146 242.125 335.062 238.5C333.312 232.667 332.438 227.5 332.438 223V168.375H360.688V224.312C360.688 229.312 362.062 233.229 364.812 236.062C367.604 238.854 371.458 240.25 376.375 240.25C381.25 240.25 385.062 238.875 387.812 236.125C390.604 233.333 392 229.396 392 224.312V168.375ZM464.788 168.375H491.225L525.725 219.062V168.375H552.413V260H525.725L491.413 209.688V260H464.788V168.375ZM597.95 168.375H626.325V260H597.95V168.375ZM665.862 168.375H751.925V191H723.05V260H694.737V191H665.862V168.375ZM790.337 168.375H866.212V187.938H818.712V202.5H862.775V221.188H818.712V239.25H867.587V260H790.337V168.375ZM908.875 168.375H950.938C959.229 168.375 965.917 169.5 971 171.75C976.125 174 980.354 177.229 983.688 181.438C987.021 185.646 989.438 190.542 990.938 196.125C992.438 201.708 993.188 207.625 993.188 213.875C993.188 223.667 992.062 231.271 989.812 236.688C987.604 242.062 984.521 246.583 980.562 250.25C976.604 253.875 972.354 256.292 967.812 257.5C961.604 259.167 955.979 260 950.938 260H908.875V168.375ZM937.188 189.125V239.188H944.125C950.042 239.188 954.25 238.542 956.75 237.25C959.25 235.917 961.208 233.625 962.625 230.375C964.042 227.083 964.75 221.771 964.75 214.438C964.75 204.729 963.167 198.083 960 194.5C956.833 190.917 951.583 189.125 944.25 189.125H937.188ZM1034.85 168.375H1063.22V260H1034.85V168.375ZM1109.39 168.375H1135.83L1170.33 219.062V168.375H1197.01V260H1170.33L1136.01 209.688V260H1109.39V168.375ZM1234.99 168.375H1321.05V191H1292.17V260H1263.86V191H1234.99V168.375ZM1407.15 244.875H1374.9L1370.46 260H1341.53L1375.96 168.375H1406.84L1441.28 260H1411.65L1407.15 244.875ZM1401.21 225.062L1391.09 192.125L1381.03 225.062H1401.21ZM1476 168.375H1504.31V237.438H1548.5V260H1476V168.375ZM1587.1 168.375H1615.41V203L1645.1 168.375H1682.72L1649.35 202.938L1684.22 260H1649.35L1630.04 222.312L1615.41 237.625V260H1587.1V168.375Z" fill="black"/>
<mask id="mask1_520_404" style="mask-type:alpha" maskUnits="userSpaceOnUse" x="15" y="68" width="283" height="283">
<circle cx="156.5" cy="209.5" r="141.5" fill="black"/>
</mask>
<g mask="url(#mask1_520_404)">
<path d="M290.821 -171.617L-145.167 264.37L84.3004 493.837L520.287 57.85L290.821 -171.617Z" fill="white"/>
<path d="M290.821 -171.617L-145.167 264.37L-127.515 282.021L308.472 -153.966L290.821 -171.617Z" fill="#BB133E"/>
<path d="M326.124 -136.314L-109.863 299.673L-92.2115 317.324L343.776 -118.663L326.124 -136.314Z" fill="#BB133E"/>
<path d="M361.427 -101.012L-74.5601 334.975L-56.9088 352.626L379.078 -83.3611L361.427 -101.012Z" fill="#BB133E"/>
<path d="M396.73 -65.7097L-39.2568 370.277L-21.6055 387.929L414.381 -48.0584L396.73 -65.7097Z" fill="#BB133E"/>
<path d="M432.033 -30.407L-3.9541 405.58L13.6972 423.231L449.684 -12.7557L432.033 -30.407Z" fill="#BB133E"/>
<path d="M467.337 4.89675L31.3496 440.884L49.0009 458.535L484.988 22.5481L467.337 4.89675Z" fill="#BB133E"/>
<path d="M502.639 40.1995L66.6523 476.187L84.3036 493.838L520.291 57.8508L502.639 40.1995Z" fill="#BB133E"/>
<path d="M33.1643 86.7478L-141.23 261.143L-18.0244 384.349L156.37 209.954L33.1643 86.7478Z" fill="#002664"/>
</g>
<path d="M133.336 208.822L130.963 223.669L124.156 210.263L133.336 208.822Z" fill="white"/>
<path d="M130.847 213.685L115.995 216.017L126.64 205.4L130.847 213.685Z" fill="white"/>
<path d="M125.461 212.823L118.653 199.418L132.04 206.262L125.461 212.823Z" fill="white"/>
<path d="M124.615 207.428L135.261 196.811L132.889 211.657L124.615 207.428Z" fill="white"/>
<path d="M129.481 204.954L142.868 211.798L128.015 214.129L129.481 204.954Z" fill="white"/>
<path d="M62.9721 278.992L60.5997 293.839L53.7926 280.433L62.9721 278.992Z" fill="white"/>
<path d="M60.4836 283.854L45.6309 286.186L56.2766 275.569L60.4836 283.854Z" fill="white"/>
<path d="M55.0973 282.992L48.2902 269.587L61.6767 276.431L55.0973 282.992Z" fill="white"/>
<path d="M54.2512 277.597L64.8969 266.98L62.5245 281.826L54.2512 277.597Z" fill="white"/>
<path d="M59.1172 275.123L72.5037 281.967L57.651 284.298L59.1172 275.123Z" fill="white"/>
<path d="M109.926 232.168L107.553 247.014L100.746 233.609L109.926 232.168Z" fill="white"/>
<path d="M107.437 237.031L92.5845 239.362L103.23 228.746L107.437 237.031Z" fill="white"/>
<path d="M102.05 236.169L95.2433 222.763L108.63 229.607L102.05 236.169Z" fill="white"/>
<path d="M101.205 230.773L111.851 220.157L109.479 235.003L101.205 230.773Z" fill="white"/>
<path d="M106.071 228.299L119.458 235.143L104.605 237.475L106.071 228.299Z" fill="white"/>
<path d="M86.4492 255.581L84.0768 270.427L77.2697 257.022L86.4492 255.581Z" fill="white"/>
<path d="M83.9606 260.444L69.1079 262.776L79.7536 252.159L83.9606 260.444Z" fill="white"/>
<path d="M78.5743 259.581L71.7672 246.175L85.1537 253.019L78.5743 259.581Z" fill="white"/>
<path d="M77.7283 254.185L88.374 243.569L86.0016 258.415L77.7283 254.185Z" fill="white"/>
<path d="M82.5943 251.713L95.9808 258.557L81.1281 260.889L82.5943 251.713Z" fill="white"/>
<path d="M109.708 184.726L107.336 199.572L100.528 186.167L109.708 184.726Z" fill="white"/>
<path d="M107.219 189.589L92.3667 191.92L103.012 181.304L107.219 189.589Z" fill="white"/>
<path d="M101.833 188.726L95.0255 175.321L108.412 182.165L101.833 188.726Z" fill="white"/>
<path d="M100.987 183.331L111.633 172.715L109.26 187.561L100.987 183.331Z" fill="white"/>
<path d="M105.853 180.857L119.24 187.701L104.387 190.032L105.853 180.857Z" fill="white"/>
<path d="M86.4203 161.926L84.048 176.772L77.2409 163.367L86.4203 161.926Z" fill="white"/>
<path d="M83.9318 166.789L69.0791 169.12L79.7248 158.504L83.9318 166.789Z" fill="white"/>
<path d="M78.5455 165.925L71.7384 152.52L85.1249 159.364L78.5455 165.925Z" fill="white"/>
<path d="M77.7004 160.53L88.3461 149.914L85.9737 164.76L77.7004 160.53Z" fill="white"/>
<path d="M82.5665 158.058L95.9529 164.902L81.1002 167.234L82.5665 158.058Z" fill="white"/>
<path d="M62.9716 138.477L60.5992 153.323L53.7921 139.918L62.9716 138.477Z" fill="white"/>
<path d="M60.4831 143.34L45.6304 145.671L56.2761 135.055L60.4831 143.34Z" fill="white"/>
<path d="M55.0968 142.476L48.2897 129.071L61.6762 135.915L55.0968 142.476Z" fill="white"/>
<path d="M54.2507 137.081L64.8964 126.465L62.524 141.311L54.2507 137.081Z" fill="white"/>
<path d="M59.1177 134.609L72.5042 141.453L57.6515 143.784L59.1177 134.609Z" fill="white"/>
<path d="M51.5077 208.822L49.1354 223.669L42.3283 210.263L51.5077 208.822Z" fill="white"/>
<path d="M49.0192 213.685L34.1665 216.017L44.8122 205.4L49.0192 213.685Z" fill="white"/>
<path d="M43.6324 212.823L36.8253 199.418L50.2118 206.262L43.6324 212.823Z" fill="white"/>
<path d="M42.7869 207.428L53.4325 196.811L51.0602 211.657L42.7869 207.428Z" fill="white"/>
<path d="M47.6529 204.954L61.0394 211.798L46.1867 214.129L47.6529 204.954Z" fill="white"/>
<path d="M93.0678 208.822L90.6954 223.668L83.8883 210.262L93.0678 208.822Z" fill="white"/>
<path d="M90.5793 213.684L75.7266 216.016L86.3723 205.399L90.5793 213.684Z" fill="white"/>
<path d="M85.193 212.821L78.3859 199.416L91.7724 206.26L85.193 212.821Z" fill="white"/>
<path d="M84.3469 207.426L94.9926 196.809L92.6202 211.655L84.3469 207.426Z" fill="white"/>
<path d="M89.2139 204.954L102.6 211.798L87.7477 214.129L89.2139 204.954Z" fill="white"/>
<path d="M69.6581 232.169L67.2858 247.015L60.4787 233.61L69.6581 232.169Z" fill="white"/>
<path d="M67.1696 237.032L52.3169 239.363L62.9626 228.747L67.1696 237.032Z" fill="white"/>
<path d="M61.7828 236.17L54.9757 222.764L68.3622 229.608L61.7828 236.17Z" fill="white"/>
<path d="M60.9377 230.774L71.5834 220.158L69.211 235.004L60.9377 230.774Z" fill="white"/>
<path d="M65.8038 228.3L79.1902 235.144L64.3375 237.476L65.8038 228.3Z" fill="white"/>
<path d="M46.1806 255.58L43.8082 270.427L37.0011 257.021L46.1806 255.58Z" fill="white"/>
<path d="M43.6921 260.443L28.8394 262.775L39.4851 252.158L43.6921 260.443Z" fill="white"/>
<path d="M38.3058 259.581L31.4987 246.175L44.8852 253.019L38.3058 259.581Z" fill="white"/>
<path d="M37.4597 254.185L48.1054 243.569L45.733 258.415L37.4597 254.185Z" fill="white"/>
<path d="M42.3257 251.711L55.7122 258.556L40.8595 260.887L42.3257 251.711Z" fill="white"/>
<path d="M69.4399 184.728L67.0675 199.574L60.2604 186.169L69.4399 184.728Z" fill="white"/>
<path d="M66.9513 189.59L52.0986 191.921L62.7443 181.305L66.9513 189.59Z" fill="white"/>
<path d="M61.5641 188.727L54.757 175.322L68.1435 182.166L61.5641 188.727Z" fill="white"/>
<path d="M60.719 183.332L71.3647 172.716L68.9923 187.562L60.719 183.332Z" fill="white"/>
<path d="M65.585 180.858L78.9715 187.702L64.1188 190.033L65.585 180.858Z" fill="white"/>
<path d="M46.1533 161.926L43.7809 176.772L36.9738 163.367L46.1533 161.926Z" fill="white"/>
<path d="M43.6647 166.79L28.812 169.121L39.4577 158.505L43.6647 166.79Z" fill="white"/>
<path d="M38.2774 165.925L31.4704 152.52L44.8568 159.364L38.2774 165.925Z" fill="white"/>
<path d="M37.4324 160.531L48.0781 149.915L45.7057 164.761L37.4324 160.531Z" fill="white"/>
<path d="M42.2989 158.058L55.6853 164.902L40.8327 167.234L42.2989 158.058Z" fill="white"/>
</svg>
